<svg version="1.0" xmlns="http://www.w3.org/2000/svg" width="266.667" height="266.667" viewBox="0 0 200 200"><path d="M86.4 7c-6.7 1.8-11.3 4.1-16.3 7.9-2.2 1.7-6.2 3.1-11.7 4.2-12.6 2.6-21.9 8.7-31.2 20.6-4.6 6-7.9 14-8.8 21.4-.4 3.5-1.8 6.8-4.5 10.9-5.5 8.2-8 15.9-8.4 25.9-.4 12.8 3.1 24.6 9.8 32.7 1.6 1.9 2.7 5.2 3.5 9.9 1.6 10 6 18.2 14.3 26.5 8.2 8.2 18.2 13.5 27.3 14.6 4.5.5 7.2 1.7 12.2 5 8.2 5.5 14.7 7.6 25.5 8 12.5.5 22.1-2.4 32.4-9.7 2.5-1.8 5.7-3 8.5-3.3 10.3-1.1 19.6-6.1 28.7-15.3 7.6-7.8 13-18.1 14-26.8.5-4.4 1.4-6.9 3.8-10 7.5-9.9 10.9-25.2 8.6-38.3-1.4-7.7-5.4-17-9.3-21.7-1.7-2-2.8-4.7-3.1-8-2.3-20.7-22.4-40.9-42.8-43.1-3.6-.4-6.5-1.6-9.8-3.9-6.6-4.6-9.9-6.2-17.1-7.8-8.1-1.9-18.1-1.8-25.6.3zm28.1 14c24.2 10.4 30.9 44.2 12.1 61.4-3.8 3.5-10.5 8-11 7.5-.3-.2.5-3.1 1.6-6.4 2.1-6.2 2.7-16.4 1.5-24.1C116.6 45.7 104.8 30 92.1 24c-2.8-1.4-5.1-2.8-5.1-3.2 0-1.4 8.6-2.6 15.7-2.2 4.1.2 9.2 1.3 11.8 2.4zm-35 11.8c20.2 5.7 32.1 28.8 24.9 48.2-.4 1-1.5-.4-3.4-4-5.7-11.3-16.9-20.9-29.1-25.1-10.5-3.6-25.2-3-36.3 1.6-1.7.8-1.7.7-.1-2.5 2.5-4.8 9.3-11.8 14.4-14.8 8.8-5.1 19.3-6.4 29.6-3.4zm78.6 9.6c2.3 2.3 5.6 7 7.3 10.6 2.8 5.9 3.1 7.4 3.1 16-.1 11.6-2.6 18-10.1 25.7-7.2 7.4-13.9 10.5-25.1 11.7-3.6.4-13.4-1.1-14.5-2.2-.4-.4 2.2-2.2 5.8-4.1 11.3-5.8 21.2-18.7 24.8-32.1 2.4-9 1.1-22.5-2.9-32.4-.8-1.8-.5-1.7 3.3.4 2.3 1.3 6 4.2 8.3 6.4zM71.5 66c6.4 2.9 12.2 8.1 16.2 14.3 2.7 4.3 2.5 5.4-.5 3.8-3-1.6-11.1-3.3-16.7-3.5-7.7-.3-17.9 2-24.8 5.6-8 4.2-18.4 14.6-22 22.2-1.6 3.2-3 5.6-3.3 5.4-.9-1-1.8-8.8-1.7-15.3.1-10.1 3.2-17.6 10.2-24.4C40.8 62.5 57.2 59.3 71.5 66zm110.1 37.2c-1.2 18.7-16.2 32.9-35.8 34.2-13.5.9-25.8-5.5-33.3-17.4-1.4-2.2-2.5-4.1-2.5-4.4 0-.2 2.8.5 6.2 1.6 12.3 3.9 28.1 2.4 39.4-3.9 7.2-3.9 17.5-14.7 21-21.8l2.9-6 1.3 5.5c.7 3.1 1.1 8.5.8 12.2zM81.3 95.7c.6.3-1.6 2-4.9 3.6-7.4 3.7-16.9 13.3-21.1 21.3-7.1 13.3-7.7 29.4-1.8 43.7.7 1.8.6 1.8-3.1-.1-5.9-3-12-9.5-15.5-16.7-4-8.2-4.8-18.6-1.9-27.6 4.2-13.7 16.3-23.9 30.6-25.7 5.5-.7 15.5.1 17.7 1.5zm2.3 18.4c-3.1 7.6-3.8 19.6-1.6 28.9 3.2 13.5 14.5 27.8 26.5 33.5l6 2.8-5 1.4c-7.7 2.1-18.2 1-26-2.7-13.8-6.6-22.5-22.9-20.8-39 1-9.9 9.6-22.5 18.4-27.1 1.9-.9 3.5-1.6 3.7-1.5.1.2-.4 1.8-1.2 3.7zm22.4 19.2c12.6 14.3 32.2 20.5 49.7 15.8 3.7-1 7.6-2.1 8.6-2.6 1.8-.7 1.8-.5-.1 3.2-2.8 5.3-10.4 12.7-15.8 15.2-9.6 4.5-19.2 5.2-28.6 2-13.4-4.5-21.5-13.2-25-26.9-1.4-5.5-1.5-7.6-.4-15.8.9-6.8 1.7-6.9 4.7-1.1 1.5 3 4.6 7.6 6.9 10.2z"/></svg>