<svg width="22" height="22" fill="none" xmlns="http://www.w3.org/2000/svg"><g clip-path="url(#clip0)" fill="#fff"><path d="M9.11 12.89c-2.1-2.1-2.574-4.2-2.681-5.041a.754.754 0 01.217-.631l1.699-1.699a.76.76 0 00.107-.939L5.746.38a.759.759 0 00-.983-.277L.42 2.148a.754.754 0 00-.417.754c.227 2.162 1.17 7.477 6.393 12.7 5.223 5.224 10.537 6.166 12.7 6.394a.754.754 0 00.754-.418l2.046-4.343a.759.759 0 00-.275-.981l-4.201-2.705a.759.759 0 00-.94.106l-1.698 1.7a.754.754 0 01-.631.216c-.841-.107-2.941-.581-5.041-2.681z"/><path d="M17.448 11.759A.759.759 0 0116.69 11 5.696 5.696 0 0011 5.31a.759.759 0 110-1.517A7.215 7.215 0 0118.207 11c0 .42-.34.759-.759.759z"/><path d="M21.241 11.759a.759.759 0 01-.758-.759A9.493 9.493 0 0011 1.517.759.759 0 1111 0c6.072.007 10.993 4.928 11 11a.758.758 0 01-.759.759z"/></g><defs><clipPath id="clip0"><path fill="#fff" d="M0 0h22v22H0z"/></clipPath></defs></svg>