<svg width="22" height="22" fill="none" xmlns="http://www.w3.org/2000/svg"><g clip-path="url(#clip0)" fill="#403F46"><path d="M21.979 15.532c-.052 1.169-.241 1.973-.512 2.669-.28.74-.709 1.4-1.272 1.951a5.415 5.415 0 01-1.947 1.268c-.7.27-1.5.46-2.669.511-1.177.056-1.551.069-4.538.069s-3.36-.013-4.534-.064c-1.17-.052-1.973-.241-2.669-.512a5.368 5.368 0 01-1.951-1.272 5.417 5.417 0 01-1.268-1.947c-.27-.7-.46-1.5-.511-2.669-.056-1.177-.07-1.551-.07-4.538s.014-3.36.065-4.534c.052-1.17.24-1.973.512-2.67.279-.738.713-1.4 1.272-1.95A5.414 5.414 0 013.834.576c.7-.27 1.5-.46 2.669-.511C7.676.013 8.05 0 11.037 0s3.36.013 4.534.065c1.169.051 1.972.24 2.668.51a5.627 5.627 0 013.22 3.22c.27.7.46 1.5.511 2.669.052 1.173.064 1.547.064 4.534s-.004 3.36-.055 4.534zM19.997 6.55c-.047-1.075-.227-1.655-.378-2.042A3.65 3.65 0 0017.53 2.42c-.386-.15-.97-.331-2.041-.379-1.16-.051-1.508-.064-4.444-.064-2.935 0-3.288.013-4.444.064-1.074.048-1.654.228-2.041.379a3.385 3.385 0 00-1.264.82 3.42 3.42 0 00-.82 1.264c-.15.387-.331.971-.379 2.041-.051 1.16-.064 1.509-.064 4.444 0 2.936.013 3.288.064 4.444.048 1.075.228 1.655.378 2.041.177.478.456.912.826 1.264.356.365.786.645 1.263.82.387.151.972.332 2.042.38 1.16.05 1.508.064 4.443.064 2.94 0 3.288-.013 4.444-.065 1.075-.047 1.655-.228 2.042-.378a3.383 3.383 0 001.263-.82c.366-.358.645-.787.821-1.265.15-.386.331-.97.378-2.04.052-1.161.065-1.51.065-4.445 0-2.935-.013-3.279-.065-4.44z"/><path d="M11.04 16.65a5.653 5.653 0 01-5.651-5.652 5.653 5.653 0 015.651-5.652 5.653 5.653 0 015.652 5.652 5.653 5.653 0 01-5.652 5.651zm0-9.318a3.667 3.667 0 10.001 7.333 3.667 3.667 0 000-7.333zm7.195 9.541a1.32 1.32 0 10-2.64 0 1.32 1.32 0 002.64 0z"/></g><defs><clipPath id="clip0"><path fill="#fff" transform="matrix(1 0 0 -1 0 22)" d="M0 0h22v22H0z"/></clipPath></defs></svg>