<svg width="22" height="22" fill="none" xmlns="http://www.w3.org/2000/svg"><g clip-path="url(#clip0)"><path d="M22 4.179a9.403 9.403 0 01-2.599.712 4.485 4.485 0 001.984-2.493 9.014 9.014 0 01-2.86 1.092 4.509 4.509 0 00-7.802 3.084c0 .357.03.701.105 1.028-3.75-.183-7.067-1.98-9.296-4.717a4.54 4.54 0 00-.618 2.28c0 1.561.805 2.946 2.004 3.748A4.454 4.454 0 01.88 8.357v.05a4.531 4.531 0 003.614 4.431 4.5 4.5 0 01-1.183.149c-.289 0-.58-.017-.854-.077.585 1.786 2.243 3.1 4.215 3.142a9.063 9.063 0 01-5.593 1.923A8.33 8.33 0 010 17.913a12.697 12.697 0 006.919 2.024c8.3 0 12.837-6.875 12.837-12.834 0-.2-.007-.392-.017-.583A8.999 8.999 0 0022 4.18z" fill="#403F46"/></g><defs><clipPath id="clip0"><path fill="#fff" d="M0 0h22v22H0z"/></clipPath></defs></svg>